<svg xmlns="http://www.w3.org/2000/svg" xmlns:xlink="http://www.w3.org/1999/xlink" width="512" zoomAndPan="magnify" viewBox="0 0 384 383.999986" height="512" preserveAspectRatio="xMidYMid meet" version="1.0"><defs><g/></defs><g fill="#25a691" fill-opacity="1"><g transform="translate(35.039067, 351.063635)"><g><path d="M 66.15625 0 C 56.125 0 48.441406 -2.660156 43.109375 -7.984375 C 37.785156 -13.304688 35.125 -20.988281 35.125 -31.03125 L 35.125 -290.640625 C 35.125 -300.679688 37.785156 -308.363281 43.109375 -313.6875 C 48.441406 -319.007812 56.125 -321.671875 66.15625 -321.671875 L 175.65625 -321.671875 C 198.164062 -321.671875 217.328125 -318.320312 233.140625 -311.625 C 248.960938 -304.9375 261.054688 -295.351562 269.421875 -282.875 C 277.785156 -270.40625 281.96875 -255.503906 281.96875 -238.171875 C 281.96875 -218.703125 276.335938 -202.273438 265.078125 -188.890625 C 253.828125 -175.503906 238.46875 -166.53125 219 -161.96875 L 219 -168.8125 C 241.507812 -165.46875 259 -156.953125 271.46875 -143.265625 C 283.945312 -129.578125 290.1875 -111.785156 290.1875 -89.890625 C 290.1875 -61.296875 280.523438 -39.164062 261.203125 -23.5 C 241.890625 -7.832031 215.050781 0 180.6875 0 Z M 91.25 -44.25 L 173.375 -44.25 C 194.0625 -44.25 209.269531 -48.28125 219 -56.34375 C 228.738281 -64.40625 233.609375 -76.5 233.609375 -92.625 C 233.609375 -109.050781 228.738281 -121.21875 219 -129.125 C 209.269531 -137.03125 194.0625 -140.984375 173.375 -140.984375 L 91.25 -140.984375 Z M 91.25 -185.25 L 165.625 -185.25 C 185.695312 -185.25 200.675781 -189.125 210.5625 -196.875 C 220.445312 -204.632812 225.390625 -216.117188 225.390625 -231.328125 C 225.390625 -246.535156 220.445312 -258.015625 210.5625 -265.765625 C 200.675781 -273.523438 185.695312 -277.40625 165.625 -277.40625 L 91.25 -277.40625 Z M 91.25 -185.25 "/></g></g></g></svg>