<svg xmlns="http://www.w3.org/2000/svg" xmlns:xlink="http://www.w3.org/1999/xlink" width="512" zoomAndPan="magnify" viewBox="0 0 384 383.999986" height="512" preserveAspectRatio="xMidYMid meet" version="1.0"><defs><g/><clipPath id="48c5664d31"><rect x="0" width="361" y="0" height="384"/></clipPath></defs><g transform="matrix(1, 0, 0, 1, 23, 0)"><g clip-path="url(#48c5664d31)"><g fill="#25a691" fill-opacity="1"><g transform="translate(0.968469, 367.378476)"><g><path d="M 70.796875 0 C 60.054688 0 51.835938 -2.847656 46.140625 -8.546875 C 40.441406 -14.242188 37.59375 -22.460938 37.59375 -33.203125 L 37.59375 -311.03125 C 37.59375 -321.769531 40.441406 -329.988281 46.140625 -335.6875 C 51.835938 -341.382812 60.054688 -344.234375 70.796875 -344.234375 L 187.984375 -344.234375 C 212.066406 -344.234375 232.570312 -340.648438 249.5 -333.484375 C 266.425781 -326.328125 279.363281 -316.070312 288.3125 -302.71875 C 297.269531 -289.375 301.75 -273.425781 301.75 -254.875 C 301.75 -234.039062 295.722656 -216.460938 283.671875 -202.140625 C 271.628906 -187.816406 255.195312 -178.210938 234.375 -173.328125 L 234.375 -180.65625 C 258.457031 -177.070312 277.171875 -167.957031 290.515625 -153.3125 C 303.859375 -138.664062 310.53125 -119.625 310.53125 -96.1875 C 310.53125 -65.59375 300.195312 -41.910156 279.53125 -25.140625 C 258.863281 -8.378906 230.140625 0 193.359375 0 Z M 97.65625 -47.359375 L 185.546875 -47.359375 C 207.679688 -47.359375 223.953125 -51.671875 234.359375 -60.296875 C 244.773438 -68.921875 249.984375 -81.863281 249.984375 -99.125 C 249.984375 -116.695312 244.773438 -129.710938 234.359375 -138.171875 C 223.953125 -146.640625 207.679688 -150.875 185.546875 -150.875 L 97.65625 -150.875 Z M 97.65625 -198.234375 L 177.234375 -198.234375 C 198.722656 -198.234375 214.753906 -202.382812 225.328125 -210.6875 C 235.910156 -218.988281 241.203125 -231.273438 241.203125 -247.546875 C 241.203125 -263.828125 235.910156 -276.113281 225.328125 -284.40625 C 214.753906 -292.707031 198.722656 -296.859375 177.234375 -296.859375 L 97.65625 -296.859375 Z M 97.65625 -198.234375 "/></g></g></g></g></g></svg>